<mxfile host="app.diagrams.net" modified="2023-07-09T15:57:10.016Z" agent="Mozilla/5.0 (Windows NT 10.0; Win64; x64) AppleWebKit/537.36 (KHTML, like Gecko) Chrome/114.0.0.0 Safari/537.36" etag="phNatwEOs7PRwPQataty" version="21.6.1" type="github">
  <diagram name="Page-1" id="822b0af5-4adb-64df-f703-e8dfc1f81529">
    <mxGraphModel dx="880" dy="490" grid="1" gridSize="10" guides="1" tooltips="1" connect="1" arrows="1" fold="1" page="1" pageScale="1" pageWidth="1100" pageHeight="850" background="#ffffff" math="0" shadow="0">
      <root>
        <mxCell id="0" />
        <mxCell id="1" parent="0" />
        <mxCell id="MnCy1xg7ryirZ8Ays6tn-19" value="" style="orthogonalLoop=1;jettySize=auto;html=1;endArrow=none;endFill=0;entryX=0.5;entryY=0;entryDx=0;entryDy=0;exitX=0.38;exitY=1.04;exitDx=0;exitDy=0;exitPerimeter=0;" parent="1" source="MnCy1xg7ryirZ8Ays6tn-1" target="MnCy1xg7ryirZ8Ays6tn-8" edge="1">
          <mxGeometry relative="1" as="geometry">
            <mxPoint x="195" y="370" as="targetPoint" />
          </mxGeometry>
        </mxCell>
        <mxCell id="MnCy1xg7ryirZ8Ays6tn-21" style="rounded=0;orthogonalLoop=1;jettySize=auto;html=1;exitX=0.5;exitY=1;exitDx=0;exitDy=0;entryX=0.5;entryY=0;entryDx=0;entryDy=0;endArrow=none;endFill=0;" parent="1" source="MnCy1xg7ryirZ8Ays6tn-1" target="MnCy1xg7ryirZ8Ays6tn-3" edge="1">
          <mxGeometry relative="1" as="geometry" />
        </mxCell>
        <mxCell id="MnCy1xg7ryirZ8Ays6tn-1" value="&lt;font face=&quot;Helvetica&quot;&gt;&lt;font style=&quot;vertical-align: inherit;&quot;&gt;&lt;font style=&quot;vertical-align: inherit;&quot;&gt;I:0&lt;/font&gt;&lt;/font&gt;&lt;/font&gt;" style="ellipse;whiteSpace=wrap;html=1;aspect=fixed;hachureGap=4;fontFamily=Architects Daughter;fontSource=https%3A%2F%2Ffonts.googleapis.com%2Fcss%3Ffamily%3DArchitects%2BDaughter;fontSize=20;shadow=0;" parent="1" vertex="1">
          <mxGeometry x="410" y="220" width="50" height="50" as="geometry" />
        </mxCell>
        <mxCell id="MnCy1xg7ryirZ8Ays6tn-2" value="&lt;font face=&quot;Helvetica&quot;&gt;I:2&lt;/font&gt;" style="ellipse;whiteSpace=wrap;html=1;aspect=fixed;hachureGap=4;fontFamily=Architects Daughter;fontSource=https%3A%2F%2Ffonts.googleapis.com%2Fcss%3Ffamily%3DArchitects%2BDaughter;fontSize=20;shadow=0;" parent="1" vertex="1">
          <mxGeometry x="250" y="250" width="50" height="50" as="geometry" />
        </mxCell>
        <mxCell id="MnCy1xg7ryirZ8Ays6tn-3" value="&lt;font face=&quot;Helvetica&quot;&gt;I:4&lt;/font&gt;" style="ellipse;whiteSpace=wrap;html=1;aspect=fixed;hachureGap=4;fontFamily=Architects Daughter;fontSource=https%3A%2F%2Ffonts.googleapis.com%2Fcss%3Ffamily%3DArchitects%2BDaughter;fontSize=20;shadow=0;" parent="1" vertex="1">
          <mxGeometry x="420" y="370" width="50" height="50" as="geometry" />
        </mxCell>
        <mxCell id="MnCy1xg7ryirZ8Ays6tn-4" value="&lt;font face=&quot;Helvetica&quot;&gt;I:6&lt;/font&gt;" style="ellipse;whiteSpace=wrap;html=1;aspect=fixed;hachureGap=4;fontFamily=Architects Daughter;fontSource=https%3A%2F%2Ffonts.googleapis.com%2Fcss%3Ffamily%3DArchitects%2BDaughter;fontSize=20;shadow=0;" parent="1" vertex="1">
          <mxGeometry x="570" y="370" width="50" height="50" as="geometry" />
        </mxCell>
        <mxCell id="yOd20kS6JaJlu298ozkH-7" style="edgeStyle=orthogonalEdgeStyle;rounded=0;orthogonalLoop=1;jettySize=auto;html=1;entryX=0;entryY=1;entryDx=0;entryDy=0;" edge="1" parent="1" source="MnCy1xg7ryirZ8Ays6tn-5" target="MnCy1xg7ryirZ8Ays6tn-5">
          <mxGeometry relative="1" as="geometry">
            <mxPoint x="340" y="430" as="targetPoint" />
            <Array as="points">
              <mxPoint x="355" y="440" />
              <mxPoint x="341" y="440" />
              <mxPoint x="341" y="413" />
            </Array>
          </mxGeometry>
        </mxCell>
        <mxCell id="MnCy1xg7ryirZ8Ays6tn-5" value="&lt;font face=&quot;Helvetica&quot;&gt;I:3&lt;/font&gt;" style="ellipse;whiteSpace=wrap;html=1;aspect=fixed;hachureGap=4;fontFamily=Architects Daughter;fontSource=https%3A%2F%2Ffonts.googleapis.com%2Fcss%3Ffamily%3DArchitects%2BDaughter;fontSize=20;shadow=0;fillColor=#d80073;strokeColor=#A50040;fontColor=#ffffff;" parent="1" vertex="1">
          <mxGeometry x="330" y="370" width="50" height="50" as="geometry" />
        </mxCell>
        <mxCell id="MnCy1xg7ryirZ8Ays6tn-6" value="&lt;font face=&quot;Helvetica&quot;&gt;I:5&lt;/font&gt;" style="ellipse;whiteSpace=wrap;html=1;aspect=fixed;hachureGap=4;fontFamily=Architects Daughter;fontSource=https%3A%2F%2Ffonts.googleapis.com%2Fcss%3Ffamily%3DArchitects%2BDaughter;fontSize=20;shadow=0;" parent="1" vertex="1">
          <mxGeometry x="500" y="370" width="50" height="50" as="geometry" />
        </mxCell>
        <mxCell id="MnCy1xg7ryirZ8Ays6tn-7" value="&lt;font face=&quot;Helvetica&quot;&gt;I:7&lt;/font&gt;" style="ellipse;whiteSpace=wrap;html=1;aspect=fixed;hachureGap=4;fontFamily=Architects Daughter;fontSource=https%3A%2F%2Ffonts.googleapis.com%2Fcss%3Ffamily%3DArchitects%2BDaughter;fontSize=20;shadow=0;" parent="1" vertex="1">
          <mxGeometry x="650" y="370" width="50" height="50" as="geometry" />
        </mxCell>
        <mxCell id="MnCy1xg7ryirZ8Ays6tn-8" value="&lt;font face=&quot;Helvetica&quot;&gt;I:1&lt;/font&gt;" style="ellipse;whiteSpace=wrap;html=1;aspect=fixed;hachureGap=4;fontFamily=Architects Daughter;fontSource=https%3A%2F%2Ffonts.googleapis.com%2Fcss%3Ffamily%3DArchitects%2BDaughter;fontSize=20;shadow=0;" parent="1" vertex="1">
          <mxGeometry x="170" y="370" width="50" height="50" as="geometry" />
        </mxCell>
        <mxCell id="MnCy1xg7ryirZ8Ays6tn-20" value="" style="orthogonalLoop=1;jettySize=auto;html=1;endArrow=none;endFill=0;entryX=0.64;entryY=-0.02;entryDx=0;entryDy=0;entryPerimeter=0;exitX=0.5;exitY=1;exitDx=0;exitDy=0;" parent="1" source="MnCy1xg7ryirZ8Ays6tn-1" target="MnCy1xg7ryirZ8Ays6tn-5" edge="1">
          <mxGeometry relative="1" as="geometry">
            <mxPoint x="441" y="270" as="sourcePoint" />
            <mxPoint x="320" y="378" as="targetPoint" />
          </mxGeometry>
        </mxCell>
        <mxCell id="MnCy1xg7ryirZ8Ays6tn-23" style="rounded=0;orthogonalLoop=1;jettySize=auto;html=1;entryX=0;entryY=0.5;entryDx=0;entryDy=0;endArrow=none;endFill=0;exitX=1;exitY=0.5;exitDx=0;exitDy=0;" parent="1" source="MnCy1xg7ryirZ8Ays6tn-5" target="MnCy1xg7ryirZ8Ays6tn-3" edge="1">
          <mxGeometry relative="1" as="geometry">
            <mxPoint x="400" y="440" as="sourcePoint" />
            <mxPoint x="510" y="405" as="targetPoint" />
          </mxGeometry>
        </mxCell>
        <mxCell id="MnCy1xg7ryirZ8Ays6tn-25" value="" style="orthogonalLoop=1;jettySize=auto;html=1;endArrow=none;endFill=0;entryX=1;entryY=0.5;entryDx=0;entryDy=0;exitX=0;exitY=0.5;exitDx=0;exitDy=0;" parent="1" source="MnCy1xg7ryirZ8Ays6tn-5" target="MnCy1xg7ryirZ8Ays6tn-8" edge="1">
          <mxGeometry relative="1" as="geometry">
            <mxPoint x="439" y="282" as="sourcePoint" />
            <mxPoint x="205" y="380" as="targetPoint" />
          </mxGeometry>
        </mxCell>
        <mxCell id="yOd20kS6JaJlu298ozkH-1" value="&lt;font style=&quot;vertical-align: inherit; font-size: 15px;&quot;&gt;&lt;font style=&quot;vertical-align: inherit; font-size: 15px;&quot;&gt;&lt;font style=&quot;vertical-align: inherit; font-size: 15px;&quot;&gt;&lt;font style=&quot;vertical-align: inherit; font-size: 15px;&quot;&gt;&lt;font style=&quot;vertical-align: inherit;&quot;&gt;&lt;font style=&quot;vertical-align: inherit;&quot;&gt;&lt;font style=&quot;vertical-align: inherit;&quot;&gt;&lt;font style=&quot;vertical-align: inherit;&quot;&gt;&lt;font style=&quot;vertical-align: inherit;&quot;&gt;&lt;font style=&quot;vertical-align: inherit;&quot;&gt;20&lt;/font&gt;&lt;/font&gt;&lt;/font&gt;&lt;/font&gt;&lt;/font&gt;&lt;/font&gt;&lt;/font&gt;&lt;/font&gt;&lt;/font&gt;&lt;/font&gt;" style="text;html=1;align=center;verticalAlign=middle;resizable=0;points=[];autosize=1;strokeColor=none;fillColor=none;" vertex="1" parent="1">
          <mxGeometry x="260" y="368" width="40" height="30" as="geometry" />
        </mxCell>
        <mxCell id="yOd20kS6JaJlu298ozkH-2" value="&lt;font style=&quot;vertical-align: inherit;&quot;&gt;&lt;font style=&quot;vertical-align: inherit;&quot;&gt;&lt;font style=&quot;vertical-align: inherit;&quot;&gt;&lt;font style=&quot;vertical-align: inherit;&quot;&gt;&lt;font style=&quot;vertical-align: inherit;&quot;&gt;&lt;font style=&quot;vertical-align: inherit;&quot;&gt;&lt;font style=&quot;vertical-align: inherit;&quot;&gt;&lt;font style=&quot;vertical-align: inherit;&quot;&gt;25&lt;/font&gt;&lt;/font&gt;&lt;/font&gt;&lt;/font&gt;&lt;/font&gt;&lt;/font&gt;&lt;/font&gt;&lt;/font&gt;" style="text;html=1;align=center;verticalAlign=middle;resizable=0;points=[];autosize=1;strokeColor=none;fillColor=none;" vertex="1" parent="1">
          <mxGeometry x="370" y="318" width="40" height="30" as="geometry" />
        </mxCell>
        <mxCell id="yOd20kS6JaJlu298ozkH-4" value="&lt;font style=&quot;vertical-align: inherit;&quot;&gt;&lt;font style=&quot;vertical-align: inherit;&quot;&gt;&lt;font style=&quot;vertical-align: inherit;&quot;&gt;&lt;font style=&quot;vertical-align: inherit;&quot;&gt;&lt;font style=&quot;vertical-align: inherit;&quot;&gt;&lt;font style=&quot;vertical-align: inherit;&quot;&gt;&lt;font style=&quot;vertical-align: inherit;&quot;&gt;&lt;font style=&quot;vertical-align: inherit;&quot;&gt;&lt;font style=&quot;vertical-align: inherit;&quot;&gt;&lt;font style=&quot;vertical-align: inherit;&quot;&gt;5&lt;/font&gt;&lt;/font&gt;&lt;/font&gt;&lt;/font&gt;&lt;/font&gt;&lt;/font&gt;&lt;/font&gt;&lt;/font&gt;&lt;/font&gt;&lt;/font&gt;" style="text;html=1;align=center;verticalAlign=middle;resizable=0;points=[];autosize=1;strokeColor=none;fillColor=none;" vertex="1" parent="1">
          <mxGeometry x="385" y="368" width="30" height="30" as="geometry" />
        </mxCell>
        <mxCell id="yOd20kS6JaJlu298ozkH-8" value="&lt;font style=&quot;vertical-align: inherit;&quot;&gt;&lt;font style=&quot;vertical-align: inherit;&quot;&gt;&lt;font style=&quot;vertical-align: inherit;&quot;&gt;&lt;font style=&quot;vertical-align: inherit;&quot;&gt;50&lt;/font&gt;&lt;/font&gt;&lt;br&gt;&lt;/font&gt;&lt;/font&gt;" style="text;html=1;align=center;verticalAlign=middle;resizable=0;points=[];autosize=1;strokeColor=none;fillColor=none;" vertex="1" parent="1">
          <mxGeometry x="340" y="428" width="40" height="30" as="geometry" />
        </mxCell>
      </root>
    </mxGraphModel>
  </diagram>
</mxfile>
